<svg width="2054" height="2054" xmlns="http://www.w3.org/2000/svg" version="1.0">

 <g>
  <title>Layer 1</title>
  <path id="svg_1" fill="#ffffff" d="m992.5,722.6c-49.1,7.3 -86.5,26 -122.1,61.1c-24.6,24.3 -42.2,55.8 -52.7,94.2l-3.2,11.6l0,34c0.1,38 0.7,43.3 8.1,65.5c8.4,25.4 28.7,60 35.1,60c2.9,0 8,-3.7 25.8,-19c18,-15.4 23.5,-21.1 23.5,-24c0,-1.1 -2.5,-6.8 -5.6,-12.8c-11.5,-22.2 -15.6,-34.8 -17.6,-55.1c-5.3,-53.4 23.3,-105.2 71.4,-129c21,-10.4 37.6,-13.6 67.1,-12.8c28.9,0.7 39.5,3.6 64.3,17.4c8.3,4.6 13.3,6.8 16.4,7.1c4.1,0.4 5.1,0 11,-4.4c8.5,-6.2 34.4,-28.1 39.4,-33.3c3.8,-3.8 3.8,-4.1 2.3,-6.4c-4.6,-7.1 -28.9,-23.8 -49,-33.7c-18.2,-9.1 -34.4,-14.4 -56.7,-18.6c-8.2,-1.5 -50.3,-2.8 -57.5,-1.8m176.5,90.1c-9.5,7.2 -35.6,29.2 -39.3,33.1c-3.5,3.6 -3.3,4.3 3.5,16.2c5.5,9.6 12.1,25.7 14.3,35.1c1,4.6 1.5,12.2 1.5,26.5c0,28.9 -1.8,37.9 -12,59.2c-13.7,28.7 -31.8,47.1 -59.4,60.6c-22.2,10.9 -36,14.1 -61.1,14.1c-27.4,-0.1 -41.9,-3.8 -68.4,-17.7c-12.7,-6.7 -15.7,-7.8 -17.5,-7c-5,2.4 -49.6,40.8 -49.6,42.8c0,3.7 23.2,21.1 42.1,31.5c6.6,3.7 12.8,7.3 13.7,8.2c4.6,4 29.3,14.4 41.9,17.6c14,3.5 25,4.4 45,3.8c26.3,-0.8 40.3,-3.6 60.8,-12.2c6,-2.5 11.2,-4.9 11.5,-5.3s4.1,-2.9 8.5,-5.4c4.4,-2.6 9.1,-5.8 10.5,-7.2c1.4,-1.5 3,-2.6 3.6,-2.6c0.7,0 1.7,-0.7 2.5,-1.6c0.7,-0.8 3.6,-3.1 6.5,-5c13,-8.6 33.6,-28 45.7,-42.9c26.9,-33.3 42.1,-69.4 45.8,-108.8c1.7,-18.2 0.7,-47.4 -2.1,-60.2c-6.8,-32 -29.5,-78.5 -38.3,-78.5c-1.2,0 -5.6,2.6 -9.7,5.7"/>
  <path id="svg_2" fill="#ffffff" d="m947.9,865c-20.2,3.6 -28.6,8.8 -30.8,19c-1.5,7 -0.1,12.1 4.3,15.5c4.9,3.7 8.3,4 20,1.6c17.7,-3.7 31.3,-5.1 49.3,-5.1c36.1,0 68.6,7 101.2,22c7.3,3.3 14.3,6 15.5,6c1.5,0 3.6,-1.4 5.5,-3.5c2.5,-2.9 3.1,-4.5 3.1,-8c0,-3.8 -0.6,-5.2 -3.7,-8.6c-5.3,-5.9 -13.7,-11.3 -28.7,-18.4c-26.1,-12.5 -49.7,-19.5 -71.9,-21.4c-20.3,-1.7 -51.2,-1.3 -63.8,0.9m16.3,54.5c-22,2.8 -37.8,7.9 -42.7,13.7c-5.8,6.9 -5.4,16.1 1,21.7c2,1.7 4.2,3.1 4.9,3.1s6.7,-1.1 13.2,-2.4c30.8,-6.3 37.8,-6.9 65.9,-6.3c16.2,0.4 29,1.2 33.8,2.1c12,2.2 30.5,8.1 48,15.2c18.4,7.5 21.8,7.9 24.7,3.1c1.2,-1.9 2,-5 2,-7.7c0,-4.1 -0.5,-5 -4.2,-8.7c-12.1,-11.6 -50.4,-26.6 -83.3,-32.5c-14.8,-2.6 -47.5,-3.3 -63.3,-1.3m15.8,51.5c-30.8,2.1 -44.4,10.6 -38.6,24.4c1.9,4.5 6.1,7.6 10.3,7.6c1.9,0 8.5,-1.2 14.6,-2.7c10.8,-2.6 12.3,-2.7 39.2,-2.7c33.9,-0.1 38.3,0.7 71.7,13.4c8.4,3.2 8.8,3.2 11.3,1.6c4.6,-3 6.3,-12.2 3.2,-17c-3.4,-5.1 -24.2,-13.8 -47.4,-19.7c-12.8,-3.2 -18.1,-4.1 -31.6,-4.9c-8.9,-0.5 -17.3,-0.9 -18.7,-0.8c-1.4,0 -7.7,0.4 -14,0.8m-101.9,227.1c-6.3,1.3 -11.7,6.9 -12.7,13c-1.9,11.2 8.2,21.5 19.1,19.5c7.4,-1.4 15.4,-12.3 13.8,-18.8c-2.3,-8.8 -12.1,-15.5 -20.2,-13.7m-221.5,0.8c-2.1,0.5 -4.2,1.4 -4.6,2.1c-1.5,2.4 -2.3,42.5 -1.6,82c0.3,21.7 0.9,40.5 1.2,41.7c0.5,1.7 1.6,2.4 4.8,2.8c5.5,0.8 57.2,0.2 58.1,-0.7c2.9,-2.8 2.1,-21.4 -1,-24.8c-1.3,-1.4 -3.9,-1.9 -13.8,-2.4c-6.7,-0.4 -13.7,-1 -15.4,-1.3l-3.3,-0.5l-0.1,-27.2c-0.2,-39.6 -1.2,-69.3 -2.5,-70.6c-1.4,-1.4 -16.7,-2.2 -21.8,-1.1m671,0c-6.8,1.4 -6.9,1.8 -6.2,26.4l0.6,21.7l-5.5,-3.6c-10.4,-6.6 -19.8,-8.4 -31.3,-6c-9.3,1.9 -16.3,5.7 -23.3,12.6c-22.6,22.4 -16.1,61.5 12.7,76.1c6.6,3.3 7.2,3.4 18.3,3.4c12.9,0 17.5,-1.4 24.3,-7.4c2,-1.7 3.8,-3.1 4.1,-3.1c0.2,0 0.7,1.8 1.1,3.9c0.3,2.2 1.3,4.1 2.2,4.5c3.3,1.3 22,0.6 24,-0.8c1.8,-1.4 1.9,-3.4 2.2,-63.5l0.3,-62.1l-2.8,-1.1c-3.7,-1.4 -15.8,-2 -20.7,-1m-22.6,65.2c3.9,0.8 6.2,2.2 9.9,5.8c8.3,8.1 8.9,16 1.8,25.3c-4.6,6 -9,8.3 -15.7,8.2c-16.7,-0.1 -27.6,-18.4 -18.7,-31.5c5.1,-7.5 12.3,-10 22.7,-7.8m-270.5,-63.5c-9.5,2.3 -20.8,8.7 -28.7,16.2c-8.4,8 -14.1,17.4 -19.2,31.6c-0.6,1.8 -0.9,1.7 -3.9,-1.2c-6.4,-6.2 -20.3,-11.2 -31.3,-11.2c-8.1,0 -20.2,3.5 -26.3,7.7c-11.6,8 -19.7,21.6 -20.7,34.9c-1.2,15 2.7,26.1 12.8,36.9c10.2,11 26.8,16.8 41,14.5c8.1,-1.4 17.3,-5.6 22.7,-10.5c5.9,-5.3 5.5,-7.3 -2.8,-15.8l-6.9,-7.1l-5.4,2.9c-17.1,9.4 -35.8,-4 -30.9,-22.2c1.3,-4.9 5.1,-9.7 9.4,-11.9c4.7,-2.5 14.8,-2 21.4,1.1l5.5,2.5l4.2,-4.8c2.4,-2.6 5.6,-6.2 7.2,-8l2.9,-3.3l0,11.3c0.1,19.7 5.9,33.4 19.9,47.3c12.4,12.3 26.6,18.5 42.4,18.5c16.2,0 26,-4.5 43.2,-19.8l4.5,-4.1l-8.5,-8.6c-4.7,-4.7 -9.3,-9.1 -10.3,-9.6c-1.4,-0.8 -2.9,-0.2 -6.8,2.7c-7.2,5.3 -14.1,7.7 -22.5,7.7c-5.9,0 -7.9,-0.4 -12.2,-2.8c-6.4,-3.5 -12.1,-9.5 -15.9,-16.7c-2.5,-4.8 -2.8,-6.3 -2.8,-15.3c0,-8.9 0.3,-10.5 2.7,-15.1c3.6,-6.8 11.5,-13.8 18.1,-16c10.5,-3.6 20.4,-1.4 32.7,7c2.9,2 5.6,3.6 6.1,3.6c1.2,0 12.6,-11.6 16.1,-16.4l2.8,-4l-3.2,-3.4c-4.4,-4.7 -19.5,-14.5 -25.5,-16.7c-4.7,-1.7 -27,-3 -31.8,-1.9m331.7,2.9c-4,2.9 -1.6,11.5 3.3,11.5c1.9,0 5.5,-3.6 5.5,-5.5s-2.1,-6.5 -3.1,-6.5c-0.4,0 -1.3,-0.2 -2.1,-0.5c-0.7,-0.3 -2.3,0.2 -3.6,1m5.2,3.4c0.4,0.5 -0.4,0.7 -1.6,0.3c-1.8,-0.4 -2,-0.2 -1.6,1.6c0.4,1.2 0.2,2.2 -0.2,2.2c-1.4,0 -2.2,-1.9 -1.6,-3.5s4.2,-2 5,-0.6m-528.1,30.8c-2.6,0.9 -5.8,3.2 -8.3,6l-4,4.6l0,-3c0,-5.9 -4.1,-7.1 -21.2,-6.5l-6.8,0.2l0,42.6c0,27.4 0.4,43.2 1,44.5c1,1.7 2.2,1.9 12.3,1.9c6.2,0 11.9,-0.5 12.7,-1c1.2,-0.7 1.7,-5.5 2.6,-25.2c1.2,-27 1.8,-29.4 8.8,-35.6c3.6,-3.2 4.7,-3.6 10.8,-4.6c4.4,-0.8 10.2,-7 12,-12.8c1,-3.4 0.9,-4.2 -0.9,-6.6c-2.5,-3.4 -7.9,-6.2 -11.8,-6.1c-1.6,0 -4.9,0.7 -7.2,1.6m385.2,0.6c-2.7,1.3 -6.7,4.3 -8.7,6.5l-3.8,4.2l0,-3.5c0,-5.6 -3.2,-7 -15.7,-7c-8.3,0.1 -10.6,0.4 -12,1.8c-1.5,1.5 -1.7,4.6 -1.7,29.9c0,15.6 0.4,34.9 0.8,43l0.8,14.8l28.8,0l0,-5.3c0.1,-2.8 0.5,-15 1,-27c0.8,-21.1 0.9,-22 3.4,-25.7c2.8,-4.3 9.2,-8.5 14.6,-9.5c6.3,-1.2 8.6,-2.5 11.3,-6.8c3.7,-5.7 4.2,-8.2 2.3,-11.2c-4.1,-6.3 -13,-8.1 -21.1,-4.2m-103,-0.4c-3.8,1 -10.7,4.5 -16.5,8.4c-5.4,3.7 -12,9.6 -12,10.7c0,1.5 15.1,13 16.9,13c1,0 4.7,-1.5 8.1,-3.3c5.5,-2.8 7.3,-3.2 13.7,-3.2c7.3,0 7.5,0.1 10.9,3.7c2.2,2.5 3.4,4.8 3.4,6.7l0,2.9l-7.1,-2.4c-8,-2.7 -15,-3 -22.4,-1c-10.7,2.8 -18.3,8.4 -22.1,16.2c-2.3,4.8 -2.6,6.3 -2.2,12.8c1.1,17.1 13.2,27.6 31.7,27.6c8.3,0 12.6,-1.2 18.2,-5c5.2,-3.5 5.9,-3.6 5.9,-1c0,3 3.8,4 15.6,4l10.5,0l-0.3,-33.3c-0.3,-31.9 -0.4,-33.4 -2.5,-37.2c-2.5,-4.7 -11.5,-13.6 -15.8,-15.8c-8.1,-4 -25.2,-5.9 -34,-3.8m20.3,55.8c5.1,3.8 4.1,9.1 -2.5,13.3c-5.8,3.7 -10.7,3.9 -15.4,0.7c-4.8,-3.2 -5.8,-6.7 -3.1,-10.4c1.2,-1.7 3.6,-3.8 5.4,-4.7c4.2,-2.1 12,-1.6 15.6,1.1m-434.5,-54.7c-1.3,0.5 -2.3,1.5 -2.3,2.3c0,2.9 3.6,13.3 14.5,41.7c14.3,37.4 17.7,47.1 17.1,48.6c-0.3,0.7 -3.1,3 -6.3,5.1c-6.3,4.1 -10,9.9 -11,17.2c-0.5,3.6 -0.3,4.1 2.8,5.8c5,2.7 24.9,2.5 28,-0.3c3.3,-3 6,-9.2 15.4,-34.9c4.8,-13.2 13.4,-36.4 19.1,-51.6s10.4,-28.8 10.4,-30.2c0,-1.3 -0.7,-2.7 -1.5,-3.1c-3.2,-1.2 -14.6,-1.8 -21,-1.1c-8.3,0.8 -7.5,-0.7 -15.1,30.5c-3.3,13.2 -6,22.6 -6.4,21.8c-0.4,-0.7 -3.8,-11.4 -7.5,-23.8s-7.4,-23.7 -8.1,-25.1c-1.1,-2.2 -2.2,-2.7 -6.6,-3.2c-7.5,-0.9 -18.9,-0.7 -21.5,0.3m158.6,-0.4l-2.6,0.5l-0.6,14.2c-0.8,17.1 -0.7,48.4 0.2,62.5c0.4,7.5 1,10.5 2.1,11.2c2.5,1.6 24.5,1.2 25.9,-0.4c1.3,-1.6 1.2,-85.9 -0.2,-87.2c-0.8,-0.8 -20.8,-1.5 -24.8,-0.8m-3,149.1c-1,2.7 -0.8,10 0.8,30.6l0.6,7.8l4.6,-0.3l4.6,-0.3l0.5,-11.7l0.5,-11.8l5.5,7.2c3,3.9 6,7.3 6.7,7.5c0.6,0.3 3.8,-3 6.9,-7.2c6.9,-9.2 7.2,-8.9 7.3,6.2l0.1,10.3l10,0l0,-18.3c0,-10 -0.3,-19.2 -0.6,-20.5c-0.5,-1.8 -1.3,-2.2 -4.9,-2.2c-5,0 -6.3,1 -13.9,10.3l-5.5,6.8l-6,-7.9c-6.4,-8.5 -7.4,-9.2 -12.7,-9.2c-2.8,0 -3.6,0.5 -4.5,2.7m92.4,-0.8c-2.1,2.3 -15.1,31 -16,35.2c-1,5.1 6.3,5 11.3,-0.2c2.6,-2.7 3.3,-2.9 10.1,-2.9c6.5,0 7.5,0.3 9.5,2.5c3,3.4 8.5,5.2 10.4,3.3c1.6,-1.5 1.2,-2.6 -9.8,-28.8l-4.4,-10.5l-4.6,-0.3c-3.6,-0.2 -5,0.1 -6.5,1.7m8.2,17.4l2.5,5.7l-5,0c-4.1,0 -5,-0.3 -5,-1.8c0,-2.1 3.9,-10.7 4.5,-10c0.2,0.2 1.6,3 3,6.1m46.5,-17.8c-0.9,1.1 -1.1,6.1 -0.8,19.5c0.2,9.8 0.6,18.1 0.9,18.3c0.2,0.3 2.5,0.8 5.2,1.1l4.7,0.7l0.1,-5.8c0.2,-11.3 0.4,-11.3 8.9,-2.8c7.4,7.4 7.5,7.5 12.7,7.5c2.9,0 5.3,-0.2 5.3,-0.5s-3.8,-5.3 -8.5,-11.1s-8.5,-10.9 -8.5,-11.3c0,-0.3 3.2,-3.8 7,-7.6c3.9,-3.8 7,-7.5 7,-8.2c0,-1.9 -8,-1.6 -11,0.3c-1.4,1 -4.6,3.7 -7.2,6.2l-4.7,4.5l-0.7,-5.2c-0.7,-5.5 -2.2,-7.1 -6.7,-7.1c-1.4,0 -3,0.7 -3.7,1.5m123.3,-0.8c-1,0.3 -1.3,5.4 -1.3,20.4l0,19.9l3.8,0c5,0 6.2,-1.4 6.2,-7.2l0,-4.8l3.6,0c3.1,0 4.3,0.8 8.6,5.4c5,5.5 8.4,7.2 11.9,6.1c2.6,-0.9 2.4,-1.5 -1.6,-7.5l-3.6,-5.3l3.6,-3.5c4.1,-4.1 5,-6.7 4.2,-12.4c-1.1,-8.3 -8.5,-11.9 -24.6,-11.7c-5.3,0 -10.2,0.3 -10.8,0.6m21.7,10.6c2.8,1.4 3.7,4.1 2.1,6.1c-1.6,1.9 -9.2,2.9 -12.4,1.7c-2.3,-0.9 -2.7,-1.6 -2.7,-5.1l0,-4l5.3,0c2.8,0 6.3,0.6 7.7,1.3m-82,9.7l0,20l29,0l0,-8.9l-9.2,-0.3c-9.2,-0.3 -9.3,-0.3 -9.3,-2.8c0,-2.4 0.2,-2.5 7.8,-2.8l7.7,-0.3l0,-8.9l-17.1,0l0.3,-2.7c0.4,-3.3 2.6,-4.1 12.6,-4.2l7.3,-0.1l-0.3,-4.3l-0.3,-4.2l-14.2,-0.3l-14.3,-0.3l0,20.1z"/>
 </g>
</svg>